<svg width="92" height="87" viewBox="0 0 92 87" fill="none" xmlns="http://www.w3.org/2000/svg">
<g clip-path="url(#clip0_1_21)">
<path d="M62.48 4.61511V0.985248C62.493 0.440769 62.9344 0 63.4796 0C64.0248 0 64.4662 0.440769 64.4662 0.985248V4.61511C64.1287 4.61511 63.8042 4.25212 63.4666 4.25212C63.1291 4.25212 62.8046 4.60215 62.48 4.61511Z" fill="#F7941D"/>
<path d="M61.8439 5.80777C49.4985 11.4081 47.9018 34.4577 47.9018 34.4577C46.4608 31.7613 43.553 29.7389 40.2686 29.7389C38.2825 29.7389 36.4391 30.5038 34.9852 31.6316C36.3352 17.7993 47.8498 6.5856 61.8439 5.80777Z" fill="#FBB040"/>
<path d="M65.2062 5.80777C77.6944 11.5507 79.0445 34.4577 79.0445 34.4577C80.4854 31.7613 83.4322 29.7389 86.7166 29.7389C88.7027 29.7389 90.5461 30.5038 92 31.6316C90.65 17.7993 79.2132 6.5856 65.2192 5.80777H65.2062Z" fill="#F15B29"/>
<path d="M61.8439 5.80778C62.4021 5.78185 62.8954 5.75592 63.4666 5.75592C64.0378 5.75592 64.6479 5.78185 65.2061 5.80778C77.6944 11.5378 79.0315 34.4578 79.0315 34.4578C79.0315 34.4578 76.9155 29.8556 71.2166 29.8167C67.8933 29.7908 64.5571 31.6835 63.4666 34.4318C63.4666 34.4318 61.6622 29.7 55.7166 29.8167C49.5634 29.9464 47.8888 34.4578 47.8888 34.4578C47.8888 34.4578 49.3168 11.473 61.8309 5.80778H61.8439Z" fill="#F7941D"/>
<path d="M0 29.35H3.28432V50.4421H14.3965V53.5145H0V29.35Z" fill="#F7941D"/>
<path d="M17.0188 39.3062C17.8885 38.5154 18.8881 37.9191 20.0305 37.5172C21.1729 37.1153 22.3023 36.9209 23.4446 36.9209C24.587 36.9209 25.6515 37.0635 26.5083 37.3616C27.3651 37.6598 28.0661 38.0617 28.6113 38.5543C29.1565 39.0599 29.5589 39.6303 29.8186 40.2785C30.0782 40.9267 30.208 41.6008 30.208 42.3138V50.5717C30.208 51.1421 30.208 51.6607 30.2469 52.1404C30.2729 52.62 30.2989 53.0738 30.3508 53.5016H27.6117C27.5468 52.6848 27.5079 51.8681 27.5079 51.0384H27.4429C26.7549 52.0885 25.9501 52.8274 25.0154 53.2552C24.0807 53.6831 23.0033 53.9034 21.77 53.9034C21.0171 53.9034 20.3031 53.7997 19.6151 53.5923C18.9271 53.3849 18.3299 53.0867 17.8236 52.6719C17.3174 52.257 16.902 51.7514 16.6164 51.1551C16.3178 50.5588 16.175 49.8587 16.175 49.055C16.175 48.0049 16.4087 47.1363 16.876 46.4233C17.3433 45.7233 17.9794 45.1399 18.7843 44.6991C19.5891 44.2584 20.5368 43.9343 21.6142 43.7398C22.6917 43.5454 23.8471 43.4546 25.0803 43.4546H27.3391V42.7675C27.3391 42.3527 27.2612 41.9508 27.1054 41.536C26.9496 41.1211 26.703 40.7582 26.3914 40.4211C26.0669 40.097 25.6775 39.8248 25.1971 39.6303C24.7168 39.4358 24.1456 39.3451 23.4836 39.3451C22.8864 39.3451 22.3672 39.397 21.9258 39.5136C21.4844 39.6303 21.082 39.7729 20.7185 39.9414C20.355 40.11 20.0175 40.3174 19.7319 40.5378C19.4333 40.7711 19.1478 40.9785 18.8751 41.186L17.0318 39.2803L17.0188 39.3062ZM25.7034 45.7233C24.9765 45.7233 24.2235 45.7622 23.4706 45.84C22.7047 45.9177 22.0167 46.0733 21.3806 46.3067C20.7575 46.54 20.2382 46.8511 19.8488 47.266C19.4463 47.6808 19.2516 48.1994 19.2516 48.8346C19.2516 49.768 19.5632 50.4421 20.1863 50.844C20.8094 51.2588 21.6662 51.4533 22.7307 51.4533C23.5745 51.4533 24.2884 51.3107 24.8856 51.0255C25.4827 50.7403 25.9501 50.3773 26.3265 49.9106C26.69 49.4569 26.9496 48.9513 27.1184 48.3938C27.2742 47.8364 27.3521 47.2789 27.3521 46.7345V45.7103H25.7164L25.7034 45.7233Z" fill="#F7941D"/>
<path d="M34.6866 37.3357H37.5555V39.8636H37.6204C37.6854 39.6303 37.8671 39.3581 38.1527 39.008C38.4383 38.671 38.8018 38.3469 39.2431 38.0358C39.6845 37.7246 40.2168 37.4653 40.8139 37.245C41.4111 37.0246 42.0861 36.9209 42.8131 36.9209C44.0203 36.9209 45.0329 37.1672 45.8507 37.6728C46.6686 38.1784 47.3436 38.9303 47.8629 39.9285C48.3821 38.9303 49.1221 38.1784 50.0827 37.6728C51.0433 37.1672 52.004 36.9209 52.9906 36.9209C54.2368 36.9209 55.2623 37.1283 56.0672 37.5302C56.8591 37.945 57.4951 38.4765 57.9495 39.1506C58.4039 39.8248 58.7154 40.5896 58.8842 41.4323C59.0529 42.2749 59.1438 43.1694 59.1438 44.0769V53.5016H56.0672V44.4917C56.0672 43.8824 56.0282 43.2861 55.9503 42.7157C55.8725 42.1453 55.7037 41.6527 55.4571 41.2119C55.2104 40.7841 54.8469 40.4341 54.3926 40.1748C53.9382 39.9155 53.3281 39.7859 52.5752 39.7859C51.0953 39.7859 50.0308 40.2396 49.3947 41.1471C48.7586 42.0545 48.4341 43.2342 48.4341 44.6603V53.5016H45.3574V45.0362C45.3574 44.2584 45.3185 43.5583 45.2406 42.9231C45.1627 42.2879 45.0069 41.7304 44.7603 41.2637C44.5266 40.797 44.1761 40.4341 43.7347 40.1748C43.2934 39.9155 42.6962 39.7859 41.9433 39.7859C41.3981 39.7859 40.8658 39.8896 40.3595 40.11C39.8533 40.3303 39.3989 40.6544 39.0095 41.0822C38.62 41.5101 38.3085 42.0675 38.0878 42.7416C37.8541 43.4157 37.7503 44.2065 37.7503 45.114V53.5145H34.6736V37.3357H34.6866Z" fill="#F7941D"/>
<path d="M0 55.5758H4.88105L12.5661 73.8677H12.7089L20.3291 55.5758H25.2101V79.7403H21.9258V59.8798H21.8609L13.6955 79.7403H11.5146L3.34923 59.8798H3.28432V79.7403H0V55.5758Z" fill="#5A4B42"/>
<path d="M33.012 72.7787C33.012 73.4788 33.1677 74.127 33.4793 74.7103C33.7909 75.2937 34.1933 75.7863 34.6866 76.2012C35.1929 76.616 35.764 76.9271 36.4261 77.1605C37.0882 77.3938 37.7762 77.4975 38.4772 77.4975C39.4378 77.4975 40.2686 77.2772 40.9696 76.8364C41.6706 76.3956 42.3197 75.8122 42.9169 75.0733L45.2406 76.8493C43.527 79.0532 41.1384 80.1551 38.0618 80.1551C36.7896 80.1551 35.6342 79.9347 34.5957 79.5069C33.5572 79.0791 32.6874 78.4828 31.9605 77.7179C31.2465 76.9531 30.6883 76.0586 30.2988 75.0215C29.9094 73.9843 29.7147 72.8695 29.7147 71.6638C29.7147 70.4582 29.9224 69.3433 30.3508 68.3062C30.7662 67.2691 31.3503 66.3746 32.0903 65.6097C32.8302 64.8449 33.713 64.2485 34.7385 63.8207C35.764 63.3929 36.8805 63.1725 38.0877 63.1725C39.5287 63.1725 40.736 63.4189 41.7226 63.9244C42.7092 64.43 43.527 65.0782 44.1631 65.882C44.7992 66.6857 45.2665 67.6062 45.5521 68.6173C45.8377 69.6285 45.9805 70.6656 45.9805 71.7027V72.7917H32.999L33.012 72.7787ZM42.7092 70.3286C42.6832 69.6415 42.5793 69.0192 42.3846 68.4488C42.1899 67.8784 41.9043 67.3858 41.5149 66.958C41.1254 66.5431 40.6451 66.2061 40.0609 65.9727C39.4768 65.7394 38.8017 65.6097 38.0228 65.6097C37.2439 65.6097 36.5819 65.7523 35.9588 66.0375C35.3357 66.3227 34.8034 66.6857 34.375 67.1524C33.9466 67.6062 33.6091 68.1118 33.3625 68.6692C33.1288 69.2266 32.999 69.7841 32.999 70.3286H42.7092Z" fill="#5A4B42"/>
<path d="M69.9185 63.4189H72.9951V79.5977H69.9185V63.4189Z" fill="#F7941D"/>
<path d="M77.954 65.4023C78.8238 64.6115 79.8234 64.0152 80.9657 63.6133C82.1081 63.2115 83.2375 63.017 84.3799 63.017C85.5222 63.017 86.5867 63.1596 87.4435 63.4578C88.3003 63.7559 89.0013 64.1578 89.5465 64.6504C90.0917 65.156 90.4942 65.7264 90.7538 66.3746C91.0134 67.0228 91.1432 67.6969 91.1432 68.4099V76.6679C91.1432 77.2383 91.1432 77.7568 91.1822 78.2365C91.2081 78.7161 91.2341 79.1699 91.286 79.5977H88.5469C88.482 78.781 88.4431 77.9642 88.4431 77.1346H88.3782C87.6902 78.1846 86.8853 78.9236 85.9506 79.3514C85.016 79.7792 83.9385 79.9996 82.7053 79.9996C81.9523 79.9996 81.2383 79.8959 80.5503 79.6884C79.8623 79.481 79.2652 79.1828 78.7589 78.768C78.2526 78.3532 77.8372 77.8476 77.5516 77.2512C77.253 76.6549 77.1102 75.9549 77.1102 75.1511C77.1102 74.101 77.3439 73.2325 77.8112 72.5195C78.2786 71.8194 78.9147 71.236 79.7195 70.7953C80.5244 70.3545 81.472 70.0304 82.5495 69.8359C83.6269 69.6415 84.7823 69.5507 86.0155 69.5507H88.2743V68.8637C88.2743 68.4488 88.1964 68.0469 88.0407 67.6321C87.8849 67.2173 87.6382 66.8543 87.3267 66.5172C87.0021 66.1931 86.6127 65.9209 86.1324 65.7264C85.6521 65.532 85.0809 65.4412 84.4188 65.4412C83.8217 65.4412 83.3024 65.4931 82.861 65.6098C82.4197 65.7264 82.0172 65.869 81.6538 66.0376C81.2903 66.2061 80.9528 66.4135 80.6672 66.6339C80.3686 66.8672 80.083 67.0747 79.8104 67.2821L77.967 65.3764L77.954 65.4023ZM86.6387 71.8194C85.9117 71.8194 85.1588 71.8583 84.4058 71.9361C83.6399 72.0139 82.9519 72.1694 82.3158 72.4028C81.6927 72.6361 81.1734 72.9473 80.784 73.3621C80.3816 73.7769 80.1868 74.2955 80.1868 74.9307C80.1868 75.8641 80.4984 76.5382 81.1215 76.9401C81.7446 77.3549 82.6014 77.5494 83.6659 77.5494C84.5097 77.5494 85.2237 77.4068 85.8208 77.1216C86.418 76.8364 86.8853 76.4734 87.2618 76.0067C87.6253 75.553 87.8849 75.0474 88.0536 74.49C88.2094 73.9325 88.2873 73.3751 88.2873 72.8306V71.8064H86.6516L86.6387 71.8194Z" fill="#5A4B42"/>
<path d="M78.3824 41.9119C77.993 40.8748 77.4477 39.9674 76.7208 39.2025C76.0068 38.4247 75.137 37.8283 74.1245 37.3876C73.1119 36.9598 71.9825 36.7394 70.7233 36.7394C69.6329 36.7394 68.5684 36.9727 67.5299 37.4524C66.4913 37.932 65.6735 38.6062 65.0893 39.4618H65.0244V30.3223H61.9478V53.7997V65.7394H61.8829C61.3377 64.8967 60.5458 64.2356 59.5203 63.7429C58.4947 63.2503 57.4043 63.004 56.2359 63.004C54.9767 63.004 53.8473 63.2244 52.8348 63.6522C51.8222 64.08 50.9525 64.6763 50.2385 65.4412C49.5245 66.2061 48.9663 67.1006 48.5768 68.1377C48.1874 69.1748 47.9927 70.2897 47.9927 71.4953C47.9927 72.7009 48.1874 73.7899 48.5768 74.827C48.9663 75.8641 49.5115 76.7716 50.2385 77.5364C50.9525 78.3142 51.8222 78.9106 52.8348 79.3513C53.8473 79.7792 54.9767 79.9995 56.2359 79.9995C57.3264 79.9995 58.3909 79.7662 59.4294 79.2865C60.4679 78.8069 61.2857 78.1328 61.8699 77.2771H61.9348V79.5977C61.9348 82.6442 64.4143 85.1202 67.4649 85.1202C70.5156 85.1202 72.9951 82.6442 72.9951 79.5977H69.9055C69.9055 80.9589 68.828 82.0608 67.4649 82.0608C66.1019 82.0608 64.9985 80.9589 64.9985 79.5977V62.9392V50.9995H65.0634C65.6086 51.8422 66.4005 52.5033 67.426 52.996C68.4515 53.4886 69.542 53.7349 70.7103 53.7349C71.9695 53.7349 73.0989 53.5145 74.1115 53.0867C75.124 52.6589 75.9938 52.0626 76.7078 51.2977C77.4218 50.5328 77.98 49.6383 78.3694 48.6012C78.7589 47.5641 78.9536 46.4493 78.9536 45.2436C78.9536 44.038 78.7589 42.949 78.3694 41.9119H78.3824ZM61.5713 73.7769C61.3247 74.477 60.9742 75.0603 60.5069 75.553C60.0525 76.0456 59.4943 76.4345 58.8322 76.7197C58.1702 77.0049 57.4302 77.1475 56.6124 77.1475C55.7946 77.1475 55.0546 77.0049 54.3926 76.7197C53.7305 76.4345 53.1723 76.0456 52.7179 75.553C52.2636 75.0603 51.9131 74.477 51.6535 73.7769C51.4068 73.0769 51.277 72.325 51.277 71.5083C51.277 70.6915 51.4068 69.9267 51.6535 69.2396C51.9001 68.5395 52.2636 67.9562 52.7179 67.4636C53.1723 66.9709 53.7305 66.582 54.3926 66.3098C55.0546 66.0246 55.7946 65.882 56.6124 65.882C57.4302 65.882 58.1702 66.0246 58.8322 66.3098C59.4943 66.595 60.0525 66.9839 60.5069 67.4636C60.9612 67.9562 61.3117 68.5395 61.5713 69.2396C61.818 69.9396 61.9478 70.6915 61.9478 71.5083C61.9478 72.325 61.818 73.0769 61.5713 73.7769ZM75.3058 47.4993C75.0591 48.1994 74.6956 48.7827 74.2413 49.2754C73.7869 49.768 73.2287 50.1569 72.5667 50.4291C71.9046 50.7143 71.1647 50.8569 70.3468 50.8569C69.529 50.8569 68.7891 50.7143 68.127 50.4291C67.4649 50.1439 66.9067 49.755 66.4524 49.2754C65.998 48.7827 65.6475 48.1994 65.3879 47.4993C65.1413 46.7993 65.0114 46.0474 65.0114 45.2307C65.0114 44.4139 65.1413 43.662 65.3879 42.962C65.6346 42.2619 65.9851 41.6786 66.4524 41.186C66.9067 40.6933 67.4649 40.3044 68.127 40.0192C68.7891 39.734 69.529 39.5914 70.3468 39.5914C71.1647 39.5914 71.9046 39.734 72.5667 40.0192C73.2287 40.3044 73.7869 40.6933 74.2413 41.186C74.6956 41.6786 75.0461 42.2619 75.3058 42.962C75.5524 43.662 75.6822 44.4139 75.6822 45.2307C75.6822 46.0474 75.5524 46.8122 75.3058 47.4993Z" fill="#F7941D"/>
<path d="M48.1095 84.848C48.1095 85.0554 48.1484 85.2369 48.2393 85.4184C48.3302 85.5999 48.447 85.7296 48.5898 85.8592C48.7326 85.9759 48.9013 86.0666 49.0961 86.1444C49.2908 86.2092 49.4855 86.2481 49.6932 86.2481C49.9788 86.2481 50.2125 86.1833 50.4202 86.0537C50.6279 85.924 50.8226 85.7555 50.9914 85.5351L51.6664 86.0537C51.1601 86.7018 50.4591 87.0259 49.5634 87.0259C49.1869 87.0259 48.8494 86.9611 48.5508 86.8315C48.2523 86.7019 47.9926 86.5333 47.7849 86.3C47.5772 86.0796 47.4085 85.8073 47.3046 85.5092C47.1878 85.211 47.1359 84.8739 47.1359 84.5239C47.1359 84.1739 47.2008 83.8369 47.3176 83.5387C47.4344 83.2405 47.6162 82.9683 47.8239 82.7479C48.0446 82.5275 48.3042 82.346 48.6028 82.2293C48.9013 82.0997 49.2259 82.0349 49.5894 82.0349C50.0048 82.0349 50.3683 82.1127 50.6539 82.2553C50.9394 82.3979 51.1861 82.5923 51.3678 82.8257C51.5496 83.059 51.6924 83.3313 51.7703 83.6294C51.8482 83.9276 51.9001 84.2258 51.9001 84.5369V84.861H48.0965L48.1095 84.848ZM50.9524 84.1221C50.9524 83.9276 50.9135 83.7331 50.8616 83.5776C50.8096 83.409 50.7188 83.2664 50.6019 83.1368C50.4851 83.0072 50.3423 82.9164 50.1735 82.8516C50.0048 82.7868 49.8101 82.7479 49.5764 82.7479C49.3427 82.7479 49.148 82.7868 48.9663 82.8775C48.7845 82.9553 48.6287 83.072 48.4989 83.2016C48.3691 83.3313 48.2782 83.4868 48.2003 83.6424C48.1354 83.8109 48.0965 83.9665 48.0965 84.1221H50.9394H50.9524Z" fill="#5A4B42"/>
<path d="M56.3917 83.3961C56.2229 83.2276 56.0542 83.085 55.8595 83.0072C55.6777 82.9164 55.457 82.8775 55.1974 82.8775C54.9378 82.8775 54.7301 82.9164 54.5483 83.0072C54.3666 83.0979 54.2108 83.2146 54.094 83.3831C53.9642 83.5387 53.8733 83.7202 53.8084 83.9276C53.7435 84.135 53.7175 84.3424 53.7175 84.5628C53.7175 84.7832 53.7565 84.9906 53.8214 85.1851C53.8992 85.3795 54.0031 85.5481 54.1329 85.7036C54.2627 85.8462 54.4315 85.9629 54.6132 86.0537C54.795 86.1314 55.0157 86.1833 55.2493 86.1833C55.509 86.1833 55.7167 86.1444 55.8984 86.0537C56.0801 85.9629 56.2489 85.8333 56.4047 85.6648L57.0408 86.3C56.8071 86.5592 56.5345 86.7407 56.2229 86.8574C55.9114 86.9741 55.5868 87.0259 55.2363 87.0259C54.8729 87.0259 54.5353 86.9611 54.2238 86.8445C53.9252 86.7278 53.6526 86.5592 53.4319 86.3389C53.2112 86.1185 53.0425 85.8592 52.9256 85.561C52.8088 85.2629 52.7439 84.9258 52.7439 84.5499C52.7439 84.1739 52.8088 83.8498 52.9256 83.5387C53.0425 83.2276 53.2112 82.9683 53.4319 82.7479C53.6526 82.5275 53.9122 82.359 54.2108 82.2293C54.5094 82.0997 54.8469 82.0479 55.2234 82.0479C55.5739 82.0479 55.8984 82.1127 56.2229 82.2293C56.5345 82.359 56.8201 82.5405 57.0538 82.7997L56.3787 83.422L56.3917 83.3961Z" fill="#5A4B42"/>
<path d="M45.9935 86.1314C45.8767 86.1574 45.7728 86.1574 45.669 86.1574C45.5002 86.1574 45.3574 86.1314 45.2795 86.0666C45.1887 86.0018 45.1238 85.924 45.0848 85.8203C45.0459 85.7166 45.0199 85.5999 45.0069 85.4703C45.0069 85.3406 45.0069 85.211 45.0069 85.0814V82.9294H46.3051V82.1516H45.0069V80.8163C44.8252 81.1015 44.5006 81.2959 44.1242 81.2959C44.1242 81.2959 44.1112 81.2959 44.0982 81.2959V82.1516H43.0597V82.9294H44.0982V85.4055C44.0982 85.5999 44.0982 85.7944 44.1242 85.9759C44.1372 86.1703 44.1891 86.3389 44.28 86.4944C44.3708 86.65 44.5136 86.7667 44.6954 86.8704C44.8771 86.9741 45.1497 87.013 45.5002 87.013C45.5911 87.013 45.7209 87.013 45.8897 86.9741C46.0584 86.9352 46.2012 86.9093 46.3051 86.8444V86.0277C46.2142 86.0796 46.1104 86.1185 45.9935 86.1314Z" fill="#5A4B42"/>
<path d="M61.8959 83.0201C61.805 82.7868 61.6752 82.6053 61.5194 82.4497C61.3637 82.2941 61.1819 82.1904 60.9742 82.1256C60.7665 82.0608 60.5458 82.0219 60.3122 82.0219C59.9487 82.0219 59.6241 82.0997 59.3385 82.2553C59.0529 82.4108 58.8582 82.6182 58.7414 82.8646H58.7154V79.7792C58.4818 79.9996 58.1702 80.1422 57.8197 80.1551V86.8704H58.7154V84.4332C58.7154 84.1609 58.7544 83.9276 58.8193 83.7202C58.8842 83.5257 58.9751 83.3572 59.1049 83.2275C59.2347 83.0979 59.3645 83.0072 59.5203 82.9423C59.6761 82.8775 59.8578 82.8516 60.0395 82.8516C60.1823 82.8516 60.3122 82.8775 60.442 82.9164C60.5718 82.9553 60.6886 83.0331 60.7925 83.1238C60.8963 83.2146 60.9742 83.3442 61.0391 83.4998C61.104 83.6554 61.13 83.8498 61.13 84.0702V86.8704H62.0257V83.8239C62.0257 83.5128 61.9738 83.2405 61.8829 83.0072L61.8959 83.0201Z" fill="#5A4B42"/>
<path d="M71.4633 62.4855C72.3164 62.4855 73.0081 61.7948 73.0081 60.9428C73.0081 60.0908 72.3164 59.4001 71.4633 59.4001C70.6101 59.4001 69.9185 60.0908 69.9185 60.9428C69.9185 61.7948 70.6101 62.4855 71.4633 62.4855Z" fill="#F15B29"/>
</g>
<defs>
<clipPath id="clip0_1_21">
<rect width="92" height="87" fill="white"/>
</clipPath>
</defs>
</svg>
